With: Arnold Schwarzenegger, Sinbad and Phil Hartman

Howard Langston is een sympathieke zakenman die van zijn familie houdt, maar niet genoeg tijd aan ze kan besteden. Met kerst staat bovenaan het verlanglijstje van z'n zoon de speelgoedpop Turbo Man, om die in handen te krijgen moet Howard het gevecht aangaan met de dolgedraaide Myron. Dit betekent oorlog en Howard heeft besloten te winnen, wat er ook gebeurt.

A harried father decides to dream the impossible dream, to get that year's hot toy for his son just before Christmas Day. 

------------------------ Dutch Friends ------------------------
---------------------------------------------------------------
-- Bezoek ook eens mijn vrienden op: http://www.Film-Test.nl --
----- voor mijn Nederlandse Sync. ondertitels ---- en meer ----
------- http://www.Film-Test.nl ---- voor Films en meer -------
---------------------------------------------------------------

General:

Complete name                    : Jingle All the Way\Jingle All the Way.avi
Format                           : AVI
Format/Info                      : Audio Video Interleave
File size                        : 1.47 GiB
Duration                         : 1h 25mn
Overall bit rate                 : 2 446 Kbps

Video:

Format                           : MPEG-4 Visual
Format profile                   : Simple@L3
Format settings, BVOP            : No
Format settings, QPel            : No
Format settings, GMC             : No warppoints
Format settings, Matrix          : Default (H.263)
Codec ID                         : XVID
Codec ID/Hint                    : XviD
Duration                         : 1h 25mn
Bit rate                         : 2 051 Kbps
Width                            : 640 pixels
Height                           : 480 pixels
Display aspect ratio             : 4:3
Frame rate                       : 25.000 fps
Color space                      : YUV
Chroma subsampling               : 4:2:0
Bit depth                        : 8 bits
Scan type                        : Progressive
Compression mode                 : Lossy
Bits/(Pixel*Frame)               : 0.267
Stream size                      : 1.23 GiB (84%)
Writing library                  : XviD 1.1.2 (UTC 2006-11-01)

Audio:

Format                           : AC-3
Format/Info                      : Audio Coding 3
Mode extension                   : CM (complete main)
Codec ID                         : 2000
Duration                         : 1h 25mn
Bit rate mode                    : Constant
Bit rate                         : 384 Kbps
Channel(s)                       : 5 channels
Channel positions                : Front: L C R, Side: L R
Sampling rate                    : 48.0 KHz
Bit depth                        : 16 bits
Compression mode                 : Lossy
Stream size                      : 236 MiB (16%)
Alignment                        : Aligned on interleaves
Interleave, duration             : 32 ms (0.80 video frame)
